<svg xmlns="http://www.w3.org/2000/svg" xmlns:xlink="http://www.w3.org/1999/xlink" contentStyleType="text/css" data-diagram-type="CLASS" height="1106px" preserveAspectRatio="none" style="width:1814px;height:1106px;background:#FFFFFF;" version="1.1" viewBox="0 0 1814 1106" width="1814px" zoomAndPan="magnify"><?plantuml 1.2026.7beta1?><defs/><g><!--cluster Norm_Definition--><g class="cluster" data-qualified-name="Norm_Definition" data-source-line="4" id="ent0001"><rect fill="none" height="360.53" rx="2.5" ry="2.5" style="stroke:#000000;stroke-width:1.5;" width="214" x="7" y="369.67"/><text fill="#000000" font-family="sans-serif" font-size="14" font-weight="700" lengthAdjust="spacing" textLength="127.6748" x="50.1626" y="384.6651">Norm_Definition</text></g><!--cluster Implementation_Data--><g class="cluster" data-qualified-name="Implementation_Data" data-source-line="23" id="ent0004"><rect fill="none" height="723.2" rx="2.5" ry="2.5" style="stroke:#000000;stroke-width:1.5;" width="880" x="676" y="369.67"/><text fill="#000000" font-family="sans-serif" font-size="14" font-weight="700" lengthAdjust="spacing" textLength="169.5859" x="1031.207" y="384.6651">Implementation_Data</text></g><!--cluster Audit_Data--><g class="cluster" data-qualified-name="Audit_Data" data-source-line="89" id="ent0013"><rect fill="none" height="526.86" rx="2.5" ry="2.5" style="stroke:#000000;stroke-width:1.5;" width="407" x="245" y="7"/><text fill="#000000" font-family="sans-serif" font-size="14" font-weight="700" lengthAdjust="spacing" textLength="86.5225" x="405.2388" y="21.9951">Audit_Data</text></g><!--cluster Executive_Data--><g class="cluster" data-qualified-name="Executive_Data" data-source-line="123" id="ent0018"><rect fill="none" height="345.53" rx="2.5" ry="2.5" style="stroke:#000000;stroke-width:1.5;" width="220" x="1580" y="557.86"/><text fill="#000000" font-family="sans-serif" font-size="14" font-weight="700" lengthAdjust="spacing" textLength="120.6748" x="1629.6626" y="572.8551">Executive_Data</text></g><!--class Standard--><g class="entity" data-qualified-name="Norm_Definition.Standard" data-source-line="5" id="ent0002"><rect fill="#F1F1F1" height="113.1875" rx="2.5" ry="2.5" style="stroke:#181818;stroke-width:0.5;" width="131.1982" x="48.4" y="404.67"/><ellipse cx="79.2678" cy="420.67" fill="#ADD1B2" rx="11" ry="11" style="stroke:#181818;stroke-width:1;"/><path d="M83.3771,426.67 L75.6584,426.67 L75.6584,414.2794 L83.3771,414.2794 L83.3771,416.4356 L78.1115,416.4356 L78.1115,419.1075 L82.8771,419.1075 L82.8771,421.2637 L78.1115,421.2637 L78.1115,424.5137 L83.3771,424.5137 L83.3771,426.67 Z " fill="#000000"/><text fill="#000000" font-family="sans-serif" font-size="14" lengthAdjust="spacing" textLength="63.9365" x="96.7939" y="425.5167">Standard</text><line style="stroke:#181818;stroke-width:0.5;" x1="49.4" x2="178.5982" y1="436.67" y2="436.67"/><g data-visibility-modifier="IE_MANDATORY"><ellipse cx="59.4" cy="450.3184" fill="#000000" rx="3" ry="3" style="stroke:#000000;stroke-width:1;"/></g><text fill="#000000" font-family="sans-serif" font-size="14" lengthAdjust="spacing" textLength="101.001" x="68.4" y="453.6651">id : UUID &#171;PK&#187;</text><line style="stroke:#181818;stroke-width:1;" x1="49.4" x2="178.5982" y1="460.9669" y2="460.9669"/><text fill="#000000" font-family="sans-serif" font-size="14" lengthAdjust="spacing" textLength="95.1016" x="54.4" y="477.962">name : String</text><text fill="#000000" font-family="sans-serif" font-size="14" lengthAdjust="spacing" textLength="106.6748" x="54.4" y="494.2589">version : String</text><text fill="#000000" font-family="sans-serif" font-size="14" lengthAdjust="spacing" textLength="119.1982" x="54.4" y="510.5557">authority : String</text></g><!--class Requirement--><g class="entity" data-qualified-name="Norm_Definition.Requirement" data-source-line="13" id="ent0003"><rect fill="#F1F1F1" height="129.4844" rx="2.5" ry="2.5" style="stroke:#181818;stroke-width:0.5;" width="181.9551" x="23.02" y="584.71"/><ellipse cx="64.5621" cy="600.71" fill="#ADD1B2" rx="11" ry="11" style="stroke:#181818;stroke-width:1;"/><path d="M68.6715,606.71 L60.9527,606.71 L60.9527,594.3194 L68.6715,594.3194 L68.6715,596.4756 L63.4058,596.4756 L63.4058,599.1475 L68.1715,599.1475 L68.1715,601.3037 L63.4058,601.3037 L63.4058,604.5537 L68.6715,604.5537 L68.6715,606.71 Z " fill="#000000"/><text fill="#000000" font-family="sans-serif" font-size="14" lengthAdjust="spacing" textLength="90.9727" x="84.4603" y="605.5567">Requirement</text><line style="stroke:#181818;stroke-width:0.5;" x1="24.02" x2="203.9751" y1="616.71" y2="616.71"/><g data-visibility-modifier="IE_MANDATORY"><ellipse cx="34.02" cy="630.3584" fill="#000000" rx="3" ry="3" style="stroke:#000000;stroke-width:1;"/></g><text fill="#000000" font-family="sans-serif" font-size="14" lengthAdjust="spacing" textLength="101.001" x="43.02" y="633.7051">id : UUID &#171;PK&#187;</text><line style="stroke:#181818;stroke-width:1;" x1="24.02" x2="203.9751" y1="641.0069" y2="641.0069"/><text fill="#000000" font-family="sans-serif" font-size="14" lengthAdjust="spacing" textLength="169.9551" x="29.02" y="658.002">standard_id : UUID &#171;FK&#187;</text><text fill="#000000" font-family="sans-serif" font-size="14" lengthAdjust="spacing" textLength="89.1611" x="29.02" y="674.2989">code : String</text><text fill="#000000" font-family="sans-serif" font-size="14" lengthAdjust="spacing" textLength="82.7695" x="29.02" y="690.5957">title : String</text><text fill="#000000" font-family="sans-serif" font-size="14" lengthAdjust="spacing" textLength="122.3975" x="29.02" y="706.8926">description : Text</text></g><!--class Mapping--><g class="entity" data-qualified-name="Implementation_Data.Mapping" data-source-line="24" id="ent0005"><rect fill="#F1F1F1" height="113.1875" rx="2.5" ry="2.5" style="stroke:#181818;stroke-width:0.5;" width="206.6123" x="691.69" y="782.35"/><ellipse cx="760.7056" cy="798.35" fill="#ADD1B2" rx="11" ry="11" style="stroke:#181818;stroke-width:1;"/><path d="M764.815,804.35 L757.0963,804.35 L757.0963,791.9594 L764.815,791.9594 L764.815,794.1156 L759.5494,794.1156 L759.5494,796.7875 L764.315,796.7875 L764.315,798.9437 L759.5494,798.9437 L759.5494,802.1937 L764.815,802.1937 L764.815,804.35 Z " fill="#000000"/><text fill="#000000" font-family="sans-serif" font-size="14" lengthAdjust="spacing" textLength="60.0811" x="781.2056" y="803.1967">Mapping</text><line style="stroke:#181818;stroke-width:0.5;" x1="692.69" x2="897.3023" y1="814.35" y2="814.35"/><g data-visibility-modifier="IE_MANDATORY"><ellipse cx="702.69" cy="827.9984" fill="#000000" rx="3" ry="3" style="stroke:#000000;stroke-width:1;"/></g><text fill="#000000" font-family="sans-serif" font-size="14" lengthAdjust="spacing" textLength="101.001" x="711.69" y="831.3451">id : UUID &#171;PK&#187;</text><line style="stroke:#181818;stroke-width:1;" x1="692.69" x2="897.3023" y1="838.6469" y2="838.6469"/><text fill="#000000" font-family="sans-serif" font-size="14" lengthAdjust="spacing" textLength="194.6123" x="697.69" y="855.642">requirement_id : UUID &#171;FK&#187;</text><text fill="#000000" font-family="sans-serif" font-size="14" lengthAdjust="spacing" textLength="156.4473" x="697.69" y="871.9389">control_id : UUID &#171;FK&#187;</text><text fill="#000000" font-family="sans-serif" font-size="14" lengthAdjust="spacing" textLength="106.791" x="697.69" y="888.2357">rationale : Text</text></g><!--class Control--><g class="entity" data-qualified-name="Implementation_Data.Control" data-source-line="32" id="ent0006"><rect fill="#F1F1F1" height="129.4844" rx="2.5" ry="2.5" style="stroke:#181818;stroke-width:0.5;" width="134.3975" x="1046.8" y="584.71"/><ellipse cx="1084.9675" cy="600.71" fill="#ADD1B2" rx="11" ry="11" style="stroke:#181818;stroke-width:1;"/><path d="M1089.0769,606.71 L1081.3582,606.71 L1081.3582,594.3194 L1089.0769,594.3194 L1089.0769,596.4756 L1083.8113,596.4756 L1083.8113,599.1475 L1088.5769,599.1475 L1088.5769,601.3037 L1083.8113,601.3037 L1083.8113,604.5537 L1089.0769,604.5537 L1089.0769,606.71 Z " fill="#000000"/><text fill="#000000" font-family="sans-serif" font-size="14" lengthAdjust="spacing" textLength="50.9141" x="1104.1159" y="605.5567">Control</text><line style="stroke:#181818;stroke-width:0.5;" x1="1047.8" x2="1180.1975" y1="616.71" y2="616.71"/><g data-visibility-modifier="IE_MANDATORY"><ellipse cx="1057.8" cy="630.3584" fill="#000000" rx="3" ry="3" style="stroke:#000000;stroke-width:1;"/></g><text fill="#000000" font-family="sans-serif" font-size="14" lengthAdjust="spacing" textLength="101.001" x="1066.8" y="633.7051">id : UUID &#171;PK&#187;</text><line style="stroke:#181818;stroke-width:1;" x1="1047.8" x2="1180.1975" y1="641.0069" y2="641.0069"/><text fill="#000000" font-family="sans-serif" font-size="14" lengthAdjust="spacing" textLength="95.1016" x="1052.8" y="658.002">name : String</text><text fill="#000000" font-family="sans-serif" font-size="14" lengthAdjust="spacing" textLength="122.3975" x="1052.8" y="674.2989">description : Text</text><text fill="#000000" font-family="sans-serif" font-size="14" lengthAdjust="spacing" textLength="98.6563" x="1052.8" y="690.5957">owner : String</text><text fill="#000000" font-family="sans-serif" font-size="14" lengthAdjust="spacing" textLength="96.8652" x="1052.8" y="706.8926">status : Enum</text></g><!--class Task--><g class="entity" data-qualified-name="Implementation_Data.Task" data-source-line="41" id="ent0007"><rect fill="#F1F1F1" height="129.4844" rx="2.5" ry="2.5" style="stroke:#181818;stroke-width:0.5;" width="168.4473" x="1136.78" y="774.2"/><ellipse cx="1200.4875" cy="790.2" fill="#ADD1B2" rx="11" ry="11" style="stroke:#181818;stroke-width:1;"/><path d="M1204.5969,796.2 L1196.8781,796.2 L1196.8781,783.8094 L1204.5969,783.8094 L1204.5969,785.9656 L1199.3313,785.9656 L1199.3313,788.6375 L1204.0969,788.6375 L1204.0969,790.7937 L1199.3313,790.7937 L1199.3313,794.0437 L1204.5969,794.0437 L1204.5969,796.2 Z " fill="#000000"/><text fill="#000000" font-family="sans-serif" font-size="14" lengthAdjust="spacing" textLength="32.5322" x="1220.9875" y="795.0467">Task</text><line style="stroke:#181818;stroke-width:0.5;" x1="1137.78" x2="1304.2273" y1="806.2" y2="806.2"/><g data-visibility-modifier="IE_MANDATORY"><ellipse cx="1147.78" cy="819.8484" fill="#000000" rx="3" ry="3" style="stroke:#000000;stroke-width:1;"/></g><text fill="#000000" font-family="sans-serif" font-size="14" lengthAdjust="spacing" textLength="101.001" x="1156.78" y="823.1951">id : UUID &#171;PK&#187;</text><line style="stroke:#181818;stroke-width:1;" x1="1137.78" x2="1304.2273" y1="830.4969" y2="830.4969"/><text fill="#000000" font-family="sans-serif" font-size="14" lengthAdjust="spacing" textLength="156.4473" x="1142.78" y="847.492">control_id : UUID &#171;FK&#187;</text><text fill="#000000" font-family="sans-serif" font-size="14" lengthAdjust="spacing" textLength="82.7695" x="1142.78" y="863.7889">title : String</text><text fill="#000000" font-family="sans-serif" font-size="14" lengthAdjust="spacing" textLength="117.4414" x="1142.78" y="880.0857">assignee : String</text><text fill="#000000" font-family="sans-serif" font-size="14" lengthAdjust="spacing" textLength="112.0205" x="1142.78" y="896.3826">due_date : Date</text></g><!--class Evidence--><g class="entity" data-qualified-name="Implementation_Data.Evidence" data-source-line="50" id="ent0008"><rect fill="#F1F1F1" height="113.1875" rx="2.5" ry="2.5" style="stroke:#181818;stroke-width:0.5;" width="199.5098" x="1340.25" y="782.35"/><ellipse cx="1403.9028" cy="798.35" fill="#ADD1B2" rx="11" ry="11" style="stroke:#181818;stroke-width:1;"/><path d="M1408.0122,804.35 L1400.2935,804.35 L1400.2935,791.9594 L1408.0122,791.9594 L1408.0122,794.1156 L1402.7466,794.1156 L1402.7466,796.7875 L1407.5122,796.7875 L1407.5122,798.9437 L1402.7466,798.9437 L1402.7466,802.1937 L1408.0122,802.1937 L1408.0122,804.35 Z " fill="#000000"/><text fill="#000000" font-family="sans-serif" font-size="14" lengthAdjust="spacing" textLength="63.7041" x="1424.4028" y="803.1967">Evidence</text><line style="stroke:#181818;stroke-width:0.5;" x1="1341.25" x2="1538.7598" y1="814.35" y2="814.35"/><g data-visibility-modifier="IE_MANDATORY"><ellipse cx="1351.25" cy="827.9984" fill="#000000" rx="3" ry="3" style="stroke:#000000;stroke-width:1;"/></g><text fill="#000000" font-family="sans-serif" font-size="14" lengthAdjust="spacing" textLength="101.001" x="1360.25" y="831.3451">id : UUID &#171;PK&#187;</text><line style="stroke:#181818;stroke-width:1;" x1="1341.25" x2="1538.7598" y1="838.6469" y2="838.6469"/><text fill="#000000" font-family="sans-serif" font-size="14" lengthAdjust="spacing" textLength="156.4473" x="1346.25" y="855.642">control_id : UUID &#171;FK&#187;</text><text fill="#000000" font-family="sans-serif" font-size="14" lengthAdjust="spacing" textLength="187.5098" x="1346.25" y="871.9389">collection_date : DateTime</text><text fill="#000000" font-family="sans-serif" font-size="14" lengthAdjust="spacing" textLength="153.3164" x="1346.25" y="888.2357">valid_until : DateTime</text></g><!--class Artifact--><g class="entity" data-qualified-name="Implementation_Data.Artifact" data-source-line="58" id="ent0009"><rect fill="#F1F1F1" height="113.1875" rx="2.5" ry="2.5" style="stroke:#181818;stroke-width:0.5;" width="183.083" x="1348.46" y="963.68"/><ellipse cx="1410.0484" cy="979.68" fill="#ADD1B2" rx="11" ry="11" style="stroke:#181818;stroke-width:1;"/><path d="M1414.1578,985.68 L1406.439,985.68 L1406.439,973.2894 L1414.1578,973.2894 L1414.1578,975.4456 L1408.8921,975.4456 L1408.8921,978.1175 L1413.6578,978.1175 L1413.6578,980.2737 L1408.8921,980.2737 L1408.8921,983.5237 L1414.1578,983.5237 L1414.1578,985.68 Z " fill="#000000"/><text fill="#000000" font-family="sans-serif" font-size="14" lengthAdjust="spacing" textLength="51.4063" x="1430.5484" y="984.5267">Artifact</text><line style="stroke:#181818;stroke-width:0.5;" x1="1349.46" x2="1530.543" y1="995.68" y2="995.68"/><g data-visibility-modifier="IE_MANDATORY"><ellipse cx="1359.46" cy="1009.3284" fill="#000000" rx="3" ry="3" style="stroke:#000000;stroke-width:1;"/></g><text fill="#000000" font-family="sans-serif" font-size="14" lengthAdjust="spacing" textLength="101.001" x="1368.46" y="1012.6751">id : UUID &#171;PK&#187;</text><line style="stroke:#181818;stroke-width:1;" x1="1349.46" x2="1530.543" y1="1019.9769" y2="1019.9769"/><text fill="#000000" font-family="sans-serif" font-size="14" lengthAdjust="spacing" textLength="171.083" x="1354.46" y="1036.972">evidence_id : UUID &#171;FK&#187;</text><text fill="#000000" font-family="sans-serif" font-size="14" lengthAdjust="spacing" textLength="123.4229" x="1354.46" y="1053.2689">file_name : String</text><text fill="#000000" font-family="sans-serif" font-size="14" lengthAdjust="spacing" textLength="102.2383" x="1354.46" y="1069.5657">file_url : String</text></g><!--class Risk--><g class="entity" data-qualified-name="Implementation_Data.Risk" data-source-line="66" id="ent0010"><rect fill="#F1F1F1" height="96.8906" rx="2.5" ry="2.5" style="stroke:#181818;stroke-width:0.5;" width="179.8838" x="832.06" y="601.01"/><ellipse cx="903.2426" cy="617.01" fill="#ADD1B2" rx="11" ry="11" style="stroke:#181818;stroke-width:1;"/><path d="M907.352,623.01 L899.6332,623.01 L899.6332,610.6194 L907.352,610.6194 L907.352,612.7756 L902.0864,612.7756 L902.0864,615.4475 L906.852,615.4475 L906.852,617.6037 L902.0864,617.6037 L902.0864,620.8537 L907.352,620.8537 L907.352,623.01 Z " fill="#000000"/><text fill="#000000" font-family="sans-serif" font-size="14" lengthAdjust="spacing" textLength="29.0186" x="923.7426" y="621.8567">Risk</text><line style="stroke:#181818;stroke-width:0.5;" x1="833.06" x2="1010.9438" y1="633.01" y2="633.01"/><g data-visibility-modifier="IE_MANDATORY"><ellipse cx="843.06" cy="646.6584" fill="#000000" rx="3" ry="3" style="stroke:#000000;stroke-width:1;"/></g><text fill="#000000" font-family="sans-serif" font-size="14" lengthAdjust="spacing" textLength="101.001" x="852.06" y="650.0051">id : UUID &#171;PK&#187;</text><line style="stroke:#181818;stroke-width:1;" x1="833.06" x2="1010.9438" y1="657.3069" y2="657.3069"/><text fill="#000000" font-family="sans-serif" font-size="14" lengthAdjust="spacing" textLength="82.7695" x="838.06" y="674.302">title : String</text><text fill="#000000" font-family="sans-serif" font-size="14" lengthAdjust="spacing" textLength="167.8838" x="838.06" y="690.5989">inherent_score : Integer</text></g><!--class Risk_Treatment--><g class="entity" data-qualified-name="Implementation_Data.Risk_Treatment" data-source-line="73" id="ent0011"><rect fill="#F1F1F1" height="96.8906" rx="2.5" ry="2.5" style="stroke:#181818;stroke-width:0.5;" width="168.4473" x="933.78" y="790.49"/><ellipse cx="960.8518" cy="806.49" fill="#ADD1B2" rx="11" ry="11" style="stroke:#181818;stroke-width:1;"/><path d="M964.9612,812.49 L957.2424,812.49 L957.2424,800.0994 L964.9612,800.0994 L964.9612,802.2556 L959.6955,802.2556 L959.6955,804.9275 L964.4612,804.9275 L964.4612,807.0837 L959.6955,807.0837 L959.6955,810.3337 L964.9612,810.3337 L964.9612,812.49 Z " fill="#000000"/><text fill="#000000" font-family="sans-serif" font-size="14" lengthAdjust="spacing" textLength="109.6211" x="977.5344" y="811.3367">Risk_Treatment</text><line style="stroke:#181818;stroke-width:0.5;" x1="934.78" x2="1101.2273" y1="822.49" y2="822.49"/><g data-visibility-modifier="IE_MANDATORY"><ellipse cx="944.78" cy="836.1384" fill="#000000" rx="3" ry="3" style="stroke:#000000;stroke-width:1;"/></g><text fill="#000000" font-family="sans-serif" font-size="14" lengthAdjust="spacing" textLength="101.001" x="953.78" y="839.4851">id : UUID &#171;PK&#187;</text><line style="stroke:#181818;stroke-width:1;" x1="934.78" x2="1101.2273" y1="846.7869" y2="846.7869"/><text fill="#000000" font-family="sans-serif" font-size="14" lengthAdjust="spacing" textLength="132.6582" x="939.78" y="863.782">risk_id : UUID &#171;FK&#187;</text><text fill="#000000" font-family="sans-serif" font-size="14" lengthAdjust="spacing" textLength="156.4473" x="939.78" y="880.0789">control_id : UUID &#171;FK&#187;</text></g><!--class Exception_Request--><g class="entity" data-qualified-name="Implementation_Data.Exception_Request" data-source-line="80" id="ent0012"><rect fill="#F1F1F1" height="113.1875" rx="2.5" ry="2.5" style="stroke:#181818;stroke-width:0.5;" width="168.4473" x="1145.78" y="404.67"/><ellipse cx="1162.0421" cy="420.67" fill="#ADD1B2" rx="11" ry="11" style="stroke:#181818;stroke-width:1;"/><path d="M1166.1515,426.67 L1158.4327,426.67 L1158.4327,414.2794 L1166.1515,414.2794 L1166.1515,416.4356 L1160.8859,416.4356 L1160.8859,419.1075 L1165.6515,419.1075 L1165.6515,421.2637 L1160.8859,421.2637 L1160.8859,424.5137 L1166.1515,424.5137 L1166.1515,426.67 Z " fill="#000000"/><text fill="#000000" font-family="sans-serif" font-size="14" lengthAdjust="spacing" textLength="133.6426" x="1176.3226" y="425.5167">Exception_Request</text><line style="stroke:#181818;stroke-width:0.5;" x1="1146.78" x2="1313.2273" y1="436.67" y2="436.67"/><g data-visibility-modifier="IE_MANDATORY"><ellipse cx="1156.78" cy="450.3184" fill="#000000" rx="3" ry="3" style="stroke:#000000;stroke-width:1;"/></g><text fill="#000000" font-family="sans-serif" font-size="14" lengthAdjust="spacing" textLength="101.001" x="1165.78" y="453.6651">id : UUID &#171;PK&#187;</text><line style="stroke:#181818;stroke-width:1;" x1="1146.78" x2="1313.2273" y1="460.9669" y2="460.9669"/><text fill="#000000" font-family="sans-serif" font-size="14" lengthAdjust="spacing" textLength="156.4473" x="1151.78" y="477.962">control_id : UUID &#171;FK&#187;</text><text fill="#000000" font-family="sans-serif" font-size="14" lengthAdjust="spacing" textLength="125.9043" x="1151.78" y="494.2589">justification : Text</text><text fill="#000000" font-family="sans-serif" font-size="14" lengthAdjust="spacing" textLength="129.3633" x="1151.78" y="510.5557">expiry_date : Date</text></g><!--class Audit--><g class="entity" data-qualified-name="Audit_Data.Audit" data-source-line="90" id="ent0014"><rect fill="#F1F1F1" height="113.1875" rx="2.5" ry="2.5" style="stroke:#181818;stroke-width:0.5;" width="127.001" x="486.5" y="42"/><ellipse cx="527.7283" cy="58" fill="#ADD1B2" rx="11" ry="11" style="stroke:#181818;stroke-width:1;"/><path d="M531.8377,64 L524.1189,64 L524.1189,51.6094 L531.8377,51.6094 L531.8377,53.7656 L526.5721,53.7656 L526.5721,56.4375 L531.3377,56.4375 L531.3377,58.5938 L526.5721,58.5938 L526.5721,61.8438 L531.8377,61.8438 L531.8377,64 Z " fill="#000000"/><text fill="#000000" font-family="sans-serif" font-size="14" lengthAdjust="spacing" textLength="36.7158" x="547.5568" y="62.8467">Audit</text><line style="stroke:#181818;stroke-width:0.5;" x1="487.5" x2="612.501" y1="74" y2="74"/><g data-visibility-modifier="IE_MANDATORY"><ellipse cx="497.5" cy="87.6484" fill="#000000" rx="3" ry="3" style="stroke:#000000;stroke-width:1;"/></g><text fill="#000000" font-family="sans-serif" font-size="14" lengthAdjust="spacing" textLength="101.001" x="506.5" y="90.9951">id : UUID &#171;PK&#187;</text><line style="stroke:#181818;stroke-width:1;" x1="487.5" x2="612.501" y1="98.2969" y2="98.2969"/><text fill="#000000" font-family="sans-serif" font-size="14" lengthAdjust="spacing" textLength="82.7695" x="492.5" y="115.292">title : String</text><text fill="#000000" font-family="sans-serif" font-size="14" lengthAdjust="spacing" textLength="105.4375" x="492.5" y="131.5889">auditor : String</text><text fill="#000000" font-family="sans-serif" font-size="14" lengthAdjust="spacing" textLength="78.6475" x="492.5" y="147.8857">date : Date</text></g><!--class Finding--><g class="entity" data-qualified-name="Audit_Data.Finding" data-source-line="98" id="ent0015"><rect fill="#F1F1F1" height="129.4844" rx="2.5" ry="2.5" style="stroke:#181818;stroke-width:0.5;" width="168.4473" x="465.78" y="215.19"/><ellipse cx="520.0779" cy="231.19" fill="#ADD1B2" rx="11" ry="11" style="stroke:#181818;stroke-width:1;"/><path d="M524.1872,237.19 L516.4685,237.19 L516.4685,224.7994 L524.1872,224.7994 L524.1872,226.9556 L518.9216,226.9556 L518.9216,229.6275 L523.6872,229.6275 L523.6872,231.7837 L518.9216,231.7837 L518.9216,235.0337 L524.1872,235.0337 L524.1872,237.19 Z " fill="#000000"/><text fill="#000000" font-family="sans-serif" font-size="14" lengthAdjust="spacing" textLength="51.3516" x="540.5779" y="236.0367">Finding</text><line style="stroke:#181818;stroke-width:0.5;" x1="466.78" x2="633.2273" y1="247.19" y2="247.19"/><g data-visibility-modifier="IE_MANDATORY"><ellipse cx="476.78" cy="260.8384" fill="#000000" rx="3" ry="3" style="stroke:#000000;stroke-width:1;"/></g><text fill="#000000" font-family="sans-serif" font-size="14" lengthAdjust="spacing" textLength="101.001" x="485.78" y="264.1851">id : UUID &#171;PK&#187;</text><line style="stroke:#181818;stroke-width:1;" x1="466.78" x2="633.2273" y1="271.4869" y2="271.4869"/><text fill="#000000" font-family="sans-serif" font-size="14" lengthAdjust="spacing" textLength="143.3291" x="471.78" y="288.482">audit_id : UUID &#171;FK&#187;</text><text fill="#000000" font-family="sans-serif" font-size="14" lengthAdjust="spacing" textLength="156.4473" x="471.78" y="304.7789">control_id : UUID &#171;FK&#187;</text><text fill="#000000" font-family="sans-serif" font-size="14" lengthAdjust="spacing" textLength="110.0723" x="471.78" y="321.0757">severity : Enum</text><text fill="#000000" font-family="sans-serif" font-size="14" lengthAdjust="spacing" textLength="96.8652" x="471.78" y="337.3726">status : Enum</text></g><!--class Audit_Rationale--><g class="entity" data-qualified-name="Audit_Data.Audit_Rationale" data-source-line="107" id="ent0016"><rect fill="#F1F1F1" height="96.8906" rx="2.5" ry="2.5" style="stroke:#181818;stroke-width:0.5;" width="167.8389" x="261.08" y="412.82"/><ellipse cx="287.7426" cy="428.82" fill="#ADD1B2" rx="11" ry="11" style="stroke:#181818;stroke-width:1;"/><path d="M291.852,434.82 L284.1333,434.82 L284.1333,422.4294 L291.852,422.4294 L291.852,424.5856 L286.5864,424.5856 L286.5864,427.2575 L291.352,427.2575 L291.352,429.4137 L286.5864,429.4137 L286.5864,432.6637 L291.852,432.6637 L291.852,434.82 Z " fill="#000000"/><text fill="#000000" font-family="sans-serif" font-size="14" lengthAdjust="spacing" textLength="109.9219" x="304.3343" y="433.6667">Audit_Rationale</text><line style="stroke:#181818;stroke-width:0.5;" x1="262.08" x2="427.9189" y1="444.82" y2="444.82"/><g data-visibility-modifier="IE_MANDATORY"><ellipse cx="272.08" cy="458.4684" fill="#000000" rx="3" ry="3" style="stroke:#000000;stroke-width:1;"/></g><text fill="#000000" font-family="sans-serif" font-size="14" lengthAdjust="spacing" textLength="101.001" x="281.08" y="461.8151">id : UUID &#171;PK&#187;</text><line style="stroke:#181818;stroke-width:1;" x1="262.08" x2="427.9189" y1="469.1169" y2="469.1169"/><text fill="#000000" font-family="sans-serif" font-size="14" lengthAdjust="spacing" textLength="155.8389" x="267.08" y="486.112">finding_id : UUID &#171;FK&#187;</text><text fill="#000000" font-family="sans-serif" font-size="14" lengthAdjust="spacing" textLength="77.4854" x="267.08" y="502.4089">logic : Text</text></g><!--class Remediation_Action--><g class="entity" data-qualified-name="Audit_Data.Remediation_Action" data-source-line="114" id="ent0017"><rect fill="#F1F1F1" height="113.1875" rx="2.5" ry="2.5" style="stroke:#181818;stroke-width:0.5;" width="171.8564" x="464.07" y="404.67"/><ellipse cx="479.07" cy="420.67" fill="#ADD1B2" rx="11" ry="11" style="stroke:#181818;stroke-width:1;"/><path d="M483.1794,426.67 L475.4606,426.67 L475.4606,414.2794 L483.1794,414.2794 L483.1794,416.4356 L477.9138,416.4356 L477.9138,419.1075 L482.6794,419.1075 L482.6794,421.2637 L477.9138,421.2637 L477.9138,424.5137 L483.1794,424.5137 L483.1794,426.67 Z " fill="#000000"/><text fill="#000000" font-family="sans-serif" font-size="14" lengthAdjust="spacing" textLength="139.8564" x="493.07" y="425.5167">Remediation_Action</text><line style="stroke:#181818;stroke-width:0.5;" x1="465.07" x2="634.9264" y1="436.67" y2="436.67"/><g data-visibility-modifier="IE_MANDATORY"><ellipse cx="475.07" cy="450.3184" fill="#000000" rx="3" ry="3" style="stroke:#000000;stroke-width:1;"/></g><text fill="#000000" font-family="sans-serif" font-size="14" lengthAdjust="spacing" textLength="101.001" x="484.07" y="453.6651">id : UUID &#171;PK&#187;</text><line style="stroke:#181818;stroke-width:1;" x1="465.07" x2="634.9264" y1="460.9669" y2="460.9669"/><text fill="#000000" font-family="sans-serif" font-size="14" lengthAdjust="spacing" textLength="155.8389" x="470.07" y="477.962">finding_id : UUID &#171;FK&#187;</text><text fill="#000000" font-family="sans-serif" font-size="14" lengthAdjust="spacing" textLength="156.4473" x="470.07" y="494.2589">control_id : UUID &#171;FK&#187;</text><text fill="#000000" font-family="sans-serif" font-size="14" lengthAdjust="spacing" textLength="107.3105" x="470.07" y="510.5557">deadline : Date</text></g><!--class Decision--><g class="entity" data-qualified-name="Executive_Data.Decision" data-source-line="124" id="ent0019"><rect fill="#F1F1F1" height="113.1875" rx="2.5" ry="2.5" style="stroke:#181818;stroke-width:0.5;" width="188.5244" x="1595.74" y="592.86"/><ellipse cx="1655.9509" cy="608.86" fill="#ADD1B2" rx="11" ry="11" style="stroke:#181818;stroke-width:1;"/><path d="M1660.0603,614.86 L1652.3416,614.86 L1652.3416,602.4694 L1660.0603,602.4694 L1660.0603,604.6256 L1654.7947,604.6256 L1654.7947,607.2975 L1659.5603,607.2975 L1659.5603,609.4537 L1654.7947,609.4537 L1654.7947,612.7037 L1660.0603,612.7037 L1660.0603,614.86 Z " fill="#000000"/><text fill="#000000" font-family="sans-serif" font-size="14" lengthAdjust="spacing" textLength="59.6025" x="1676.4509" y="613.7067">Decision</text><line style="stroke:#181818;stroke-width:0.5;" x1="1596.74" x2="1783.2644" y1="624.86" y2="624.86"/><g data-visibility-modifier="IE_MANDATORY"><ellipse cx="1606.74" cy="638.5084" fill="#000000" rx="3" ry="3" style="stroke:#000000;stroke-width:1;"/></g><text fill="#000000" font-family="sans-serif" font-size="14" lengthAdjust="spacing" textLength="101.001" x="1615.74" y="641.8551">id : UUID &#171;PK&#187;</text><line style="stroke:#181818;stroke-width:1;" x1="1596.74" x2="1783.2644" y1="649.1569" y2="649.1569"/><text fill="#000000" font-family="sans-serif" font-size="14" lengthAdjust="spacing" textLength="176.5244" x="1601.74" y="666.152">exception_id : UUID &#171;FK&#187;</text><text fill="#000000" font-family="sans-serif" font-size="14" lengthAdjust="spacing" textLength="118.7266" x="1601.74" y="682.4489">approver : String</text><text fill="#000000" font-family="sans-serif" font-size="14" lengthAdjust="spacing" textLength="96.8652" x="1601.74" y="698.7457">status : Enum</text></g><!--class Decision_Rationale--><g class="entity" data-qualified-name="Executive_Data.Decision_Rationale" data-source-line="132" id="ent0020"><rect fill="#F1F1F1" height="96.8906" rx="2.5" ry="2.5" style="stroke:#181818;stroke-width:0.5;" width="177.3203" x="1601.34" y="790.49"/><ellipse cx="1621.9703" cy="806.49" fill="#ADD1B2" rx="11" ry="11" style="stroke:#181818;stroke-width:1;"/><path d="M1626.0796,812.49 L1618.3609,812.49 L1618.3609,800.0994 L1626.0796,800.0994 L1626.0796,802.2556 L1620.814,802.2556 L1620.814,804.9275 L1625.5796,804.9275 L1625.5796,807.0837 L1620.814,807.0837 L1620.814,810.3337 L1626.0796,810.3337 L1626.0796,812.49 Z " fill="#000000"/><text fill="#000000" font-family="sans-serif" font-size="14" lengthAdjust="spacing" textLength="132.8086" x="1637.2214" y="811.3367">Decision_Rationale</text><line style="stroke:#181818;stroke-width:0.5;" x1="1602.34" x2="1777.6603" y1="822.49" y2="822.49"/><g data-visibility-modifier="IE_MANDATORY"><ellipse cx="1612.34" cy="836.1384" fill="#000000" rx="3" ry="3" style="stroke:#000000;stroke-width:1;"/></g><text fill="#000000" font-family="sans-serif" font-size="14" lengthAdjust="spacing" textLength="101.001" x="1621.34" y="839.4851">id : UUID &#171;PK&#187;</text><line style="stroke:#181818;stroke-width:1;" x1="1602.34" x2="1777.6603" y1="846.7869" y2="846.7869"/><text fill="#000000" font-family="sans-serif" font-size="14" lengthAdjust="spacing" textLength="165.3203" x="1607.34" y="863.782">decision_id : UUID &#171;FK&#187;</text><text fill="#000000" font-family="sans-serif" font-size="14" lengthAdjust="spacing" textLength="118.3643" x="1607.34" y="880.0789">comments : Text</text></g><!--link Standard to Requirement--><g class="link" data-entity-1="ent0002" data-entity-2="ent0003" data-link-type="crowfoot" data-source-line="141" id="lnk21"><path codeLine="141" d="M114,526.24 C114,547.12 114,544.9 114,566.43" fill="none" id="Standard-Requirement" style="stroke:#181818;stroke-width:1;"/><line style="stroke:#181818;stroke-width:1;" x1="110" x2="118" y1="522.24" y2="522.24"/><line style="stroke:#181818;stroke-width:1;" x1="110" x2="118" y1="525.24" y2="525.24"/><line style="stroke:#181818;stroke-width:1;" x1="114" x2="114" y1="526.24" y2="518.24"/><line style="stroke:#181818;stroke-width:1;" x1="114" x2="120" y1="576.43" y2="584.43"/><line style="stroke:#181818;stroke-width:1;" x1="114" x2="108" y1="576.43" y2="584.43"/><line style="stroke:#181818;stroke-width:1;" x1="114" x2="114" y1="576.43" y2="584.43"/><ellipse cx="114" cy="570.43" fill="none" rx="4" ry="4" style="stroke:#181818;stroke-width:1;"/></g><!--link Requirement to Mapping--><g class="link" data-entity-1="ent0003" data-entity-2="ent0005" data-link-type="crowfoot" data-source-line="142" id="lnk22"><path codeLine="142" d="M213.45,706.87 C392.04,706.87 761.88,706.87 761.88,706.87 C761.88,706.87 761.88,728.37 761.88,764.16" fill="none" id="Requirement-Mapping" style="stroke:#181818;stroke-width:1;"/><line style="stroke:#181818;stroke-width:1;" x1="209.45" x2="209.45" y1="710.87" y2="702.87"/><line style="stroke:#181818;stroke-width:1;" x1="212.45" x2="212.45" y1="710.87" y2="702.87"/><line style="stroke:#181818;stroke-width:1;" x1="213.45" x2="205.45" y1="706.87" y2="706.87"/><line style="stroke:#181818;stroke-width:1;" x1="761.88" x2="767.88" y1="774.16" y2="782.16"/><line style="stroke:#181818;stroke-width:1;" x1="761.88" x2="755.88" y1="774.16" y2="782.16"/><line style="stroke:#181818;stroke-width:1;" x1="761.88" x2="761.88" y1="774.16" y2="782.16"/><ellipse cx="761.88" cy="768.16" fill="none" rx="4" ry="4" style="stroke:#181818;stroke-width:1;"/></g><!--link Control to Mapping--><g class="link" data-entity-1="ent0006" data-entity-2="ent0005" data-link-type="crowfoot" data-source-line="143" id="lnk23"><path codeLine="143" d="M1065.28,722.54 C1065.28,758.06 1065.28,786.87 1065.28,786.87 C1065.28,786.87 992.94,786.87 916.72,786.87" fill="none" id="Control-Mapping" style="stroke:#181818;stroke-width:1;"/><line style="stroke:#181818;stroke-width:1;" x1="1061.28" x2="1069.28" y1="718.54" y2="718.54"/><line style="stroke:#181818;stroke-width:1;" x1="1061.28" x2="1069.28" y1="721.54" y2="721.54"/><line style="stroke:#181818;stroke-width:1;" x1="1065.28" x2="1065.28" y1="722.54" y2="714.54"/><line style="stroke:#181818;stroke-width:1;" x1="906.72" x2="898.72" y1="786.87" y2="792.87"/><line style="stroke:#181818;stroke-width:1;" x1="906.72" x2="898.72" y1="786.87" y2="780.87"/><line style="stroke:#181818;stroke-width:1;" x1="906.72" x2="898.72" y1="786.87" y2="786.87"/><ellipse cx="912.72" cy="786.87" fill="none" rx="4" ry="4" style="stroke:#181818;stroke-width:1;"/></g><!--link Control to Task--><g class="link" data-entity-1="ent0006" data-entity-2="ent0007" data-link-type="crowfoot" data-source-line="144" id="lnk24"><path codeLine="144" d="M1158.99,722.67 C1158.99,741.83 1158.99,736.78 1158.99,755.93" fill="none" id="Control-Task" style="stroke:#181818;stroke-width:1;"/><line style="stroke:#181818;stroke-width:1;" x1="1154.99" x2="1162.99" y1="718.67" y2="718.67"/><line style="stroke:#181818;stroke-width:1;" x1="1154.99" x2="1162.99" y1="721.67" y2="721.67"/><line style="stroke:#181818;stroke-width:1;" x1="1158.99" x2="1158.99" y1="722.67" y2="714.67"/><line style="stroke:#181818;stroke-width:1;" x1="1158.99" x2="1164.99" y1="765.93" y2="773.93"/><line style="stroke:#181818;stroke-width:1;" x1="1158.99" x2="1152.99" y1="765.93" y2="773.93"/><line style="stroke:#181818;stroke-width:1;" x1="1158.99" x2="1158.99" y1="765.93" y2="773.93"/><ellipse cx="1158.99" cy="759.93" fill="none" rx="4" ry="4" style="stroke:#181818;stroke-width:1;"/></g><!--link Control to Evidence--><g class="link" data-entity-1="ent0006" data-entity-2="ent0008" data-link-type="crowfoot" data-source-line="145" id="lnk25"><path codeLine="145" d="M1189.55,710.87 C1285.03,710.87 1440,710.87 1440,710.87 C1440,710.87 1440,729.82 1440,764.02" fill="none" id="Control-Evidence" style="stroke:#181818;stroke-width:1;"/><line style="stroke:#181818;stroke-width:1;" x1="1185.55" x2="1185.55" y1="714.87" y2="706.87"/><line style="stroke:#181818;stroke-width:1;" x1="1188.55" x2="1188.55" y1="714.87" y2="706.87"/><line style="stroke:#181818;stroke-width:1;" x1="1189.55" x2="1181.55" y1="710.87" y2="710.87"/><line style="stroke:#181818;stroke-width:1;" x1="1440" x2="1446" y1="774.02" y2="782.02"/><line style="stroke:#181818;stroke-width:1;" x1="1440" x2="1434" y1="774.02" y2="782.02"/><line style="stroke:#181818;stroke-width:1;" x1="1440" x2="1440" y1="774.02" y2="782.02"/><ellipse cx="1440" cy="768.02" fill="none" rx="4" ry="4" style="stroke:#181818;stroke-width:1;"/></g><!--link Evidence to Artifact--><g class="link" data-entity-1="ent0008" data-entity-2="ent0009" data-link-type="association" data-source-line="146" id="lnk26"><path codeLine="146" d="M1440,903.82 C1440,925.32 1440,933.78 1440,955.29" fill="none" id="Evidence-Artifact" style="stroke:#181818;stroke-width:1;"/><line style="stroke:#181818;stroke-width:1;" x1="1436" x2="1444" y1="899.82" y2="899.82"/><line style="stroke:#181818;stroke-width:1;" x1="1436" x2="1444" y1="902.82" y2="902.82"/><line style="stroke:#181818;stroke-width:1;" x1="1440" x2="1440" y1="903.82" y2="895.82"/><line style="stroke:#181818;stroke-width:1;" x1="1444" x2="1436" y1="959.29" y2="959.29"/><line style="stroke:#181818;stroke-width:1;" x1="1444" x2="1436" y1="956.29" y2="956.29"/><line style="stroke:#181818;stroke-width:1;" x1="1440" x2="1440" y1="955.29" y2="963.29"/></g><!--link Audit to Finding--><g class="link" data-entity-1="ent0014" data-entity-2="ent0015" data-link-type="crowfoot" data-source-line="147" id="lnk27"><path codeLine="147" d="M550,163.47 C550,182.27 550,177.34 550,196.71" fill="none" id="Audit-Finding" style="stroke:#181818;stroke-width:1;"/><line style="stroke:#181818;stroke-width:1;" x1="546" x2="554" y1="159.47" y2="159.47"/><line style="stroke:#181818;stroke-width:1;" x1="546" x2="554" y1="162.47" y2="162.47"/><line style="stroke:#181818;stroke-width:1;" x1="550" x2="550" y1="163.47" y2="155.47"/><line style="stroke:#181818;stroke-width:1;" x1="550" x2="556" y1="206.71" y2="214.71"/><line style="stroke:#181818;stroke-width:1;" x1="550" x2="544" y1="206.71" y2="214.71"/><line style="stroke:#181818;stroke-width:1;" x1="550" x2="550" y1="206.71" y2="214.71"/><ellipse cx="550" cy="200.71" fill="none" rx="4" ry="4" style="stroke:#181818;stroke-width:1;"/></g><!--link Finding to Control--><g class="link" data-entity-1="ent0015" data-entity-2="ent0006" data-link-type="association" data-source-line="148" id="lnk28"><path codeLine="148" d="M642.46,280.87 C795.8,280.87 1096.29,280.87 1096.29,280.87 C1096.29,280.87 1096.29,470.59 1096.29,576.41" fill="none" id="Finding-Control" style="stroke:#181818;stroke-width:1;"/><line style="stroke:#181818;stroke-width:1;" x1="638.46" x2="638.46" y1="284.87" y2="276.87"/><line style="stroke:#181818;stroke-width:1;" x1="641.46" x2="641.46" y1="284.87" y2="276.87"/><line style="stroke:#181818;stroke-width:1;" x1="642.46" x2="634.46" y1="280.87" y2="280.87"/><line style="stroke:#181818;stroke-width:1;" x1="1100.29" x2="1092.29" y1="580.41" y2="580.41"/><line style="stroke:#181818;stroke-width:1;" x1="1100.29" x2="1092.29" y1="577.41" y2="577.41"/><line style="stroke:#181818;stroke-width:1;" x1="1096.29" x2="1096.29" y1="576.41" y2="584.41"/></g><!--link Finding to Audit_Rationale--><g class="link" data-entity-1="ent0015" data-entity-2="ent0016" data-link-type="association" data-source-line="149" id="lnk29"><path codeLine="149" d="M457.44,280.87 C400.97,280.87 345,280.87 345,280.87 C345,280.87 345,351.02 345,404.45" fill="none" id="Finding-Audit_Rationale" style="stroke:#181818;stroke-width:1;"/><line style="stroke:#181818;stroke-width:1;" x1="461.44" x2="461.44" y1="276.87" y2="284.87"/><line style="stroke:#181818;stroke-width:1;" x1="458.44" x2="458.44" y1="276.87" y2="284.87"/><line style="stroke:#181818;stroke-width:1;" x1="457.44" x2="465.44" y1="280.87" y2="280.87"/><line style="stroke:#181818;stroke-width:1;" x1="349" x2="341" y1="408.45" y2="408.45"/><line style="stroke:#181818;stroke-width:1;" x1="349" x2="341" y1="405.45" y2="405.45"/><line style="stroke:#181818;stroke-width:1;" x1="345" x2="345" y1="404.45" y2="412.45"/></g><!--link Finding to Remediation_Action--><g class="link" data-entity-1="ent0015" data-entity-2="ent0017" data-link-type="crowfoot" data-source-line="150" id="lnk30"><path codeLine="150" d="M550,353.14 C550,372.54 550,367.62 550,386.44" fill="none" id="Finding-Remediation_Action" style="stroke:#181818;stroke-width:1;"/><line style="stroke:#181818;stroke-width:1;" x1="546" x2="554" y1="349.14" y2="349.14"/><line style="stroke:#181818;stroke-width:1;" x1="546" x2="554" y1="352.14" y2="352.14"/><line style="stroke:#181818;stroke-width:1;" x1="550" x2="550" y1="353.14" y2="345.14"/><line style="stroke:#181818;stroke-width:1;" x1="550" x2="556" y1="396.44" y2="404.44"/><line style="stroke:#181818;stroke-width:1;" x1="550" x2="544" y1="396.44" y2="404.44"/><line style="stroke:#181818;stroke-width:1;" x1="550" x2="550" y1="396.44" y2="404.44"/><ellipse cx="550" cy="390.44" fill="none" rx="4" ry="4" style="stroke:#181818;stroke-width:1;"/></g><!--link Remediation_Action to Control--><g class="link" data-entity-1="ent0017" data-entity-2="ent0006" data-link-type="association" data-source-line="151" id="lnk31"><path codeLine="151" d="M550,526.23 C550,561.79 550,592.87 550,592.87 C550,592.87 888.82,592.87 1038.53,592.87" fill="none" id="Remediation_Action-Control" style="stroke:#181818;stroke-width:1;"/><line style="stroke:#181818;stroke-width:1;" x1="546" x2="554" y1="522.23" y2="522.23"/><line style="stroke:#181818;stroke-width:1;" x1="546" x2="554" y1="525.23" y2="525.23"/><line style="stroke:#181818;stroke-width:1;" x1="550" x2="550" y1="526.23" y2="518.23"/><line style="stroke:#181818;stroke-width:1;" x1="1042.53" x2="1042.53" y1="588.87" y2="596.87"/><line style="stroke:#181818;stroke-width:1;" x1="1039.53" x2="1039.53" y1="588.87" y2="596.87"/><line style="stroke:#181818;stroke-width:1;" x1="1038.53" x2="1046.53" y1="592.87" y2="592.87"/></g><!--link Control to Risk_Treatment--><g class="link" data-entity-1="ent0006" data-entity-2="ent0011" data-link-type="crowfoot" data-source-line="152" id="lnk32"><path codeLine="152" d="M1083.75,722.67 C1083.75,747.39 1083.75,749.11 1083.75,772.08" fill="none" id="Control-Risk_Treatment" style="stroke:#181818;stroke-width:1;"/><line style="stroke:#181818;stroke-width:1;" x1="1079.75" x2="1087.75" y1="718.67" y2="718.67"/><line style="stroke:#181818;stroke-width:1;" x1="1079.75" x2="1087.75" y1="721.67" y2="721.67"/><line style="stroke:#181818;stroke-width:1;" x1="1083.75" x2="1083.75" y1="722.67" y2="714.67"/><line style="stroke:#181818;stroke-width:1;" x1="1083.75" x2="1089.75" y1="782.08" y2="790.08"/><line style="stroke:#181818;stroke-width:1;" x1="1083.75" x2="1077.75" y1="782.08" y2="790.08"/><line style="stroke:#181818;stroke-width:1;" x1="1083.75" x2="1083.75" y1="782.08" y2="790.08"/><ellipse cx="1083.75" cy="776.08" fill="none" rx="4" ry="4" style="stroke:#181818;stroke-width:1;"/></g><!--link Risk to Risk_Treatment--><g class="link" data-entity-1="ent0010" data-entity-2="ent0011" data-link-type="crowfoot" data-source-line="153" id="lnk33"><path codeLine="153" d="M972.86,706.25 C972.86,734.54 972.86,744.05 972.86,772.31" fill="none" id="Risk-Risk_Treatment" style="stroke:#181818;stroke-width:1;"/><line style="stroke:#181818;stroke-width:1;" x1="968.86" x2="976.86" y1="702.25" y2="702.25"/><line style="stroke:#181818;stroke-width:1;" x1="968.86" x2="976.86" y1="705.25" y2="705.25"/><line style="stroke:#181818;stroke-width:1;" x1="972.86" x2="972.86" y1="706.25" y2="698.25"/><line style="stroke:#181818;stroke-width:1;" x1="972.86" x2="978.86" y1="782.31" y2="790.31"/><line style="stroke:#181818;stroke-width:1;" x1="972.86" x2="966.86" y1="782.31" y2="790.31"/><line style="stroke:#181818;stroke-width:1;" x1="972.86" x2="972.86" y1="782.31" y2="790.31"/><ellipse cx="972.86" cy="776.31" fill="none" rx="4" ry="4" style="stroke:#181818;stroke-width:1;"/></g><!--link Exception_Request to Control--><g class="link" data-entity-1="ent0012" data-entity-2="ent0006" data-link-type="association" data-source-line="154" id="lnk34"><path codeLine="154" d="M1163.49,526.24 C1163.49,547.12 1163.49,554.9 1163.49,576.43" fill="none" id="Exception_Request-Control" style="stroke:#181818;stroke-width:1;"/><line style="stroke:#181818;stroke-width:1;" x1="1159.49" x2="1167.49" y1="522.24" y2="522.24"/><line style="stroke:#181818;stroke-width:1;" x1="1159.49" x2="1167.49" y1="525.24" y2="525.24"/><line style="stroke:#181818;stroke-width:1;" x1="1163.49" x2="1163.49" y1="526.24" y2="518.24"/><line style="stroke:#181818;stroke-width:1;" x1="1167.49" x2="1159.49" y1="580.43" y2="580.43"/><line style="stroke:#181818;stroke-width:1;" x1="1167.49" x2="1159.49" y1="577.43" y2="577.43"/><line style="stroke:#181818;stroke-width:1;" x1="1163.49" x2="1163.49" y1="576.43" y2="584.43"/></g><!--link Exception_Request to Decision--><g class="link" data-entity-1="ent0012" data-entity-2="ent0019" data-link-type="association" data-source-line="155" id="lnk35"><path codeLine="155" d="M1309.72,526.11 C1309.72,581.64 1309.72,649.87 1309.72,649.87 C1309.72,649.87 1474.89,649.87 1587.51,649.87" fill="none" id="Exception_Request-Decision" style="stroke:#181818;stroke-width:1;"/><line style="stroke:#181818;stroke-width:1;" x1="1305.72" x2="1313.72" y1="522.11" y2="522.11"/><line style="stroke:#181818;stroke-width:1;" x1="1305.72" x2="1313.72" y1="525.11" y2="525.11"/><line style="stroke:#181818;stroke-width:1;" x1="1309.72" x2="1309.72" y1="526.11" y2="518.11"/><line style="stroke:#181818;stroke-width:1;" x1="1591.51" x2="1591.51" y1="645.87" y2="653.87"/><line style="stroke:#181818;stroke-width:1;" x1="1588.51" x2="1588.51" y1="645.87" y2="653.87"/><line style="stroke:#181818;stroke-width:1;" x1="1587.51" x2="1595.51" y1="649.87" y2="649.87"/></g><!--link Decision to Decision_Rationale--><g class="link" data-entity-1="ent0019" data-entity-2="ent0020" data-link-type="association" data-source-line="156" id="lnk36"><path codeLine="156" d="M1690,714.31 C1690,741.02 1690,756.53 1690,782.14" fill="none" id="Decision-Decision_Rationale" style="stroke:#181818;stroke-width:1;"/><line style="stroke:#181818;stroke-width:1;" x1="1686" x2="1694" y1="710.31" y2="710.31"/><line style="stroke:#181818;stroke-width:1;" x1="1686" x2="1694" y1="713.31" y2="713.31"/><line style="stroke:#181818;stroke-width:1;" x1="1690" x2="1690" y1="714.31" y2="706.31"/><line style="stroke:#181818;stroke-width:1;" x1="1694" x2="1686" y1="786.14" y2="786.14"/><line style="stroke:#181818;stroke-width:1;" x1="1694" x2="1686" y1="783.14" y2="783.14"/><line style="stroke:#181818;stroke-width:1;" x1="1690" x2="1690" y1="782.14" y2="790.14"/></g><?plantuml-src fLPVRziW47_dKw2yJ9gKBp1LbQgcawffKvMcpnR2b_HM31xWB57Jxpx0uDZ4oTpsoV2xm_SxxX_c1MNDDAkeG0bsNmDLsZuhOZf1pVWBsy2ZtGkW6hXbSYE0a8ZJsI-bgs81QvHeKSaPVIMKWhHeztJswDHBfiiPPOQcJT2Wz2l5adwZJq_t2tfrzV3Z-Zh0ytduI5Q1apvQZN8Ja2reummCGTOukjhRwi5lf4TX2NyQr52vVM3HsqyYOYBheg_qFIbnLMOqdLMHGIKOhh6sBViLx6mW-TQxnVkg5e4Jyrh5WbaslCcVhAxT_u8BSJs9lZwwUyu3QRKIuq8TwB3WKCUxn-gsFHnOnVK7epjwHvIglnBqKDC5n3R6ONUogN92AsPU0Xk_c4JbelyZmMJ6u4P2Jh-1ecJMeovsaDEwss89aaEWbZQVfyUL4AuaVSRqZA-mWhPYcC2oQ1m7CHGDkDreYsl6s-f8cqdS83eoJcwD0ehJG0UuqU9ymM8CeLzCuZ4I9PJFe7tE6wwqbzrB2nlGOyQAbGPcZmrY04qhCd_alTKrJ90TXv3yXUzFO5eg9-ZdK-PtOro4aREyqc1NezwV976_ITqq9TgHtXJmDdtywgCnO_wmoghzGb5zHrccbXZNaqm7EnzeXWRS26f7JMmz_sb6xNqjKmyztj0HcqHutJetpage3V8pxNdf-dw9xKYvuUru3YCmXpzFu-BDbS1A_y8ubrXtE-2DnIsC9DS2E9h4F6scjQUkUaP9kI6grVPTqoMPps9w2a_YLwPZPowqylt7P2-6B_HMAsFc3_7kbY22KVECjI7T4-jmcC_LQ_-nG_eFdoYE3mcIHlTbs8_K74kpZ7H3pGiEXswGaBObHFLOfYILQrIEFytXh5O6uk1SdiPa9BCp4nd_ORCdOUICYqvxSVRdimefFKYNlPdWwE8_?></g></svg>