<svg xmlns="http://www.w3.org/2000/svg" xmlns:xlink="http://www.w3.org/1999/xlink" contentStyleType="text/css" data-diagram-type="DESCRIPTION" height="1446px" preserveAspectRatio="none" style="width:947px;height:1446px;background:#FFFFFF;" version="1.1" viewBox="0 0 947 1446" width="947px" zoomAndPan="magnify"><?plantuml 1.2026.7beta1?><defs/><g><!--cluster ucof-app (Implementer)--><g class="cluster" data-qualified-name="ucof-app .Implementer." data-source-line="5" id="ent0002"><rect fill="none" height="1425" rx="2.5" ry="2.5" style="stroke:#181818;stroke-width:1;" width="790.08" x="143.14" y="7"/><text fill="#000000" font-family="sans-serif" font-size="14" font-weight="700" lengthAdjust="spacing" textLength="188.2002" x="444.0799" y="21.9951">ucof-app (Implementer)</text></g><!--entity IUC1--><g class="entity" data-qualified-name="ucof-app .Implementer..IUC1" data-source-line="6" id="ent0003"><ellipse cx="317.2519" cy="75.0024" fill="#F1F1F1" rx="151.9119" ry="32.7824" style="stroke:#181818;stroke-width:0.5;"/><text fill="#000000" font-family="sans-serif" font-size="14" lengthAdjust="spacing" textLength="286.46" x="174.0219" y="79.6508">[I-UC1] Understand Assigned Obligations</text></g><!--entity IUC2--><g class="entity" data-qualified-name="ucof-app .Implementer..IUC2" data-source-line="7" id="ent0004"><ellipse cx="317.2504" cy="171.0041" fill="#F1F1F1" rx="127.1204" ry="27.8241" style="stroke:#181818;stroke-width:0.5;"/><text fill="#000000" font-family="sans-serif" font-size="14" lengthAdjust="spacing" textLength="234.4863" x="200.0073" y="175.6525">[I-UC2] Review Assigned Controls</text></g><!--entity IUC3--><g class="entity" data-qualified-name="ucof-app .Implementer..IUC3" data-source-line="8" id="ent0005"><ellipse cx="317.2514" cy="261.9983" fill="#F1F1F1" rx="129.5414" ry="28.3083" style="stroke:#181818;stroke-width:0.5;"/><text fill="#000000" font-family="sans-serif" font-size="14" lengthAdjust="spacing" textLength="239.6064" x="197.4482" y="266.6467">[I-UC3] Plan Implementation Work</text></g><!--entity IUC4--><g class="entity" data-qualified-name="ucof-app .Implementer..IUC4" data-source-line="9" id="ent0006"><ellipse cx="317.2512" cy="357.9962" fill="#F1F1F1" rx="149.2312" ry="32.2462" style="stroke:#181818;stroke-width:0.5;"/><text fill="#000000" font-family="sans-serif" font-size="14" lengthAdjust="spacing" textLength="280.8818" x="176.8103" y="362.6447">[I-UC4] Execute Control Implementation</text></g><!--entity IUC5--><g class="entity" data-qualified-name="ucof-app .Implementer..IUC5" data-source-line="10" id="ent0007"><ellipse cx="758.8008" cy="357.9962" fill="#F1F1F1" rx="114.9808" ry="25.3962" style="stroke:#181818;stroke-width:0.5;"/><text fill="#000000" font-family="sans-serif" font-size="14" lengthAdjust="spacing" textLength="208.6123" x="654.4946" y="362.6446">[I-UC5] Update Control Status</text></g><!--entity IUC6--><g class="entity" data-qualified-name="ucof-app .Implementer..IUC6" data-source-line="11" id="ent0008"><ellipse cx="317.2471" cy="447.9994" fill="#F1F1F1" rx="101.0971" ry="22.6194" style="stroke:#181818;stroke-width:0.5;"/><text fill="#000000" font-family="sans-serif" font-size="14" lengthAdjust="spacing" textLength="178.4727" x="228.0108" y="452.6479">[I-UC6] Produce Evidence</text></g><!--entity IUC7--><g class="entity" data-qualified-name="ucof-app .Implementer..IUC7" data-source-line="12" id="ent0009"><ellipse cx="758.8022" cy="448.0004" fill="#F1F1F1" rx="130.3022" ry="28.4604" style="stroke:#181818;stroke-width:0.5;"/><text fill="#000000" font-family="sans-serif" font-size="14" lengthAdjust="spacing" textLength="241.2129" x="638.1957" y="452.6489">[I-UC7] Attach Evidence to Control</text></g><!--entity IUC8--><g class="entity" data-qualified-name="ucof-app .Implementer..IUC8" data-source-line="13" id="ent0010"><ellipse cx="317.2461" cy="536.0012" fill="#F1F1F1" rx="137.8061" ry="29.9612" style="stroke:#181818;stroke-width:0.5;"/><text fill="#000000" font-family="sans-serif" font-size="14" lengthAdjust="spacing" textLength="257.0039" x="188.7441" y="540.6497">[I-UC8] Maintain Evidence Freshness</text></g><!--entity IUC9--><g class="entity" data-qualified-name="ucof-app .Implementer..IUC9" data-source-line="14" id="ent0011"><ellipse cx="317.2547" cy="632.0049" fill="#F1F1F1" rx="144.1247" ry="31.2249" style="stroke:#181818;stroke-width:0.5;"/><text fill="#000000" font-family="sans-serif" font-size="14" lengthAdjust="spacing" textLength="270.2314" x="182.139" y="636.6534">[I-UC9] Respond to Evidence Requests</text></g><!--entity IUC10--><g class="entity" data-qualified-name="ucof-app .Implementer..IUC10" data-source-line="15" id="ent0012"><ellipse cx="317.2495" cy="725.9959" fill="#F1F1F1" rx="128.7295" ry="28.1459" style="stroke:#181818;stroke-width:0.5;"/><text fill="#000000" font-family="sans-serif" font-size="14" lengthAdjust="spacing" textLength="237.8906" x="198.3042" y="730.6443">[I-UC10] Perform Self-Assessment</text></g><!--entity IUC11--><g class="entity" data-qualified-name="ucof-app .Implementer..IUC11" data-source-line="16" id="ent0013"><ellipse cx="317.2538" cy="820.0008" fill="#F1F1F1" rx="142.6038" ry="30.9208" style="stroke:#181818;stroke-width:0.5;"/><text fill="#000000" font-family="sans-serif" font-size="14" lengthAdjust="spacing" textLength="267.0527" x="183.7274" y="824.6492">[I-UC11] Manage Remediation Actions</text></g><!--entity IUC12--><g class="entity" data-qualified-name="ucof-app .Implementer..IUC12" data-source-line="17" id="ent0014"><ellipse cx="317.254" cy="914.0008" fill="#F1F1F1" rx="125.904" ry="27.5808" style="stroke:#181818;stroke-width:0.5;"/><text fill="#000000" font-family="sans-serif" font-size="14" lengthAdjust="spacing" textLength="231.9092" x="201.2994" y="918.6492">[I-UC12] Update Risk Treatments</text></g><!--entity IUC13--><g class="entity" data-qualified-name="ucof-app .Implementer..IUC13" data-source-line="18" id="ent0015"><ellipse cx="758.8033" cy="912.9987" fill="#F1F1F1" rx="122.5433" ry="26.9087" style="stroke:#181818;stroke-width:0.5;"/><text fill="#000000" font-family="sans-serif" font-size="14" lengthAdjust="spacing" textLength="224.7725" x="646.417" y="917.6471">[I-UC13] Reassess Residual Risk</text></g><!--entity IUC14--><g class="entity" data-qualified-name="ucof-app .Implementer..IUC14" data-source-line="19" id="ent0016"><ellipse cx="317.2505" cy="1003.0021" fill="#F1F1F1" rx="121.5605" ry="26.7121" style="stroke:#181818;stroke-width:0.5;"/><text fill="#000000" font-family="sans-serif" font-size="14" lengthAdjust="spacing" textLength="222.6807" x="205.9102" y="1007.6505">[I-UC14] Handle Change Impact</text></g><!--entity IUC15--><g class="entity" data-qualified-name="ucof-app .Implementer..IUC15" data-source-line="20" id="ent0017"><ellipse cx="758.7961" cy="1003.0032" fill="#F1F1F1" rx="129.1661" ry="28.2332" style="stroke:#181818;stroke-width:0.5;"/><text fill="#000000" font-family="sans-serif" font-size="14" lengthAdjust="spacing" textLength="238.8135" x="639.3894" y="1007.6517">[I-UC15] Review Affected Controls</text></g><!--entity IUC16--><g class="entity" data-qualified-name="ucof-app .Implementer..IUC16" data-source-line="21" id="ent0018"><ellipse cx="317.2474" cy="1097.0035" fill="#F1F1F1" rx="149.9174" ry="32.3835" style="stroke:#181818;stroke-width:0.5;"/><text fill="#000000" font-family="sans-serif" font-size="14" lengthAdjust="spacing" textLength="282.3105" x="176.0922" y="1101.6519">[I-UC16] Prepare for Audits and Reviews</text></g><!--entity IUC17--><g class="entity" data-qualified-name="ucof-app .Implementer..IUC17" data-source-line="22" id="ent0019"><ellipse cx="758.7977" cy="1097.0035" fill="#F1F1F1" rx="121.1177" ry="26.6235" style="stroke:#181818;stroke-width:0.5;"/><text fill="#000000" font-family="sans-serif" font-size="14" lengthAdjust="spacing" textLength="221.7373" x="647.929" y="1101.652">[I-UC17] Check Readiness Gaps</text></g><!--entity IUC18--><g class="entity" data-qualified-name="ucof-app .Implementer..IUC18" data-source-line="23" id="ent0020"><ellipse cx="317.2454" cy="1197.9951" fill="#F1F1F1" rx="155.7754" ry="33.5551" style="stroke:#181818;stroke-width:0.5;"/><text fill="#000000" font-family="sans-serif" font-size="14" lengthAdjust="spacing" textLength="294.4854" x="170.0028" y="1202.6435">[I-UC18] Reuse Controls Across Standards</text></g><!--entity IUC19--><g class="entity" data-qualified-name="ucof-app .Implementer..IUC19" data-source-line="24" id="ent0021"><ellipse cx="758.7957" cy="1197.9951" fill="#F1F1F1" rx="158.4257" ry="34.0851" style="stroke:#181818;stroke-width:0.5;"/><text fill="#000000" font-family="sans-serif" font-size="14" lengthAdjust="spacing" textLength="299.9814" x="608.805" y="1202.6436">[I-UC19] Reuse Evidence Across Standards</text></g><!--entity IUC20--><g class="entity" data-qualified-name="ucof-app .Implementer..IUC20" data-source-line="25" id="ent0022"><ellipse cx="317.2457" cy="1301.0031" fill="#F1F1F1" rx="158.1157" ry="34.0231" style="stroke:#181818;stroke-width:0.5;"/><text fill="#000000" font-family="sans-serif" font-size="14" lengthAdjust="spacing" textLength="299.3389" x="167.5762" y="1305.6516">[I-UC20] Collaborate on Control Ownership</text></g><!--entity IUC21--><g class="entity" data-qualified-name="ucof-app .Implementer..IUC21" data-source-line="26" id="ent0023"><ellipse cx="317.2482" cy="1392.9976" fill="#F1F1F1" rx="104.2382" ry="23.2476" style="stroke:#181818;stroke-width:0.5;"/><text fill="#000000" font-family="sans-serif" font-size="14" lengthAdjust="spacing" textLength="185.3564" x="224.57" y="1397.6461">[I-UC21] Escalate Blockers</text></g><!--entity I--><g class="entity" data-qualified-name="I" data-source-line="3" id="ent0001"><ellipse cx="51.0693" cy="696.35" fill="#F1F1F1" rx="8" ry="8" style="stroke:#181818;stroke-width:0.5;"/><path d="M51.0693,704.35 L51.0693,731.35 M38.0693,712.35 L64.0693,712.35 M51.0693,731.35 L38.0693,746.35 M51.0693,731.35 L64.0693,746.35" fill="none" style="stroke:#181818;stroke-width:0.5;"/><text fill="#000000" font-family="sans-serif" font-size="14" lengthAdjust="spacing" textLength="90.1387" x="6" y="760.8451">Implementer</text></g><!--link IUC4 to IUC5--><g class="link" data-entity-1="ent0006" data-entity-2="ent0007" data-link-type="dependency" data-source-line="28" id="lnk24"><path d="M466.76,358 C524.43,358 584.45,358 638.38,358" fill="none" id="IUC4-to-IUC5" style="stroke:#181818;stroke-width:1;stroke-dasharray:7,7;"/><polygon fill="#181818" points="643.38,358,634.38,354,638.38,358,634.38,362,643.38,358" style="stroke:#181818;stroke-width:1;stroke-linejoin:miter;stroke-miterlimit:10;"/><text fill="#000000" font-family="sans-serif" font-size="13" lengthAdjust="spacing" textLength="63.0068" x="506.37" y="354.0669">&#171;include&#187;</text></g><!--link IUC6 to IUC7--><g class="link" data-entity-1="ent0008" data-entity-2="ent0009" data-link-type="dependency" data-source-line="29" id="lnk25"><path d="M418.82,448 C480.9,448 556.19,448 623.04,448" fill="none" id="IUC6-to-IUC7" style="stroke:#181818;stroke-width:1;stroke-dasharray:7,7;"/><polygon fill="#181818" points="628.04,448,619.04,444,623.04,448,619.04,452,628.04,448" style="stroke:#181818;stroke-width:1;stroke-linejoin:miter;stroke-miterlimit:10;"/><text fill="#000000" font-family="sans-serif" font-size="13" lengthAdjust="spacing" textLength="63.0068" x="506.37" y="444.0669">&#171;include&#187;</text></g><!--link IUC12 to IUC13--><g class="link" data-entity-1="ent0014" data-entity-2="ent0015" data-link-type="dependency" data-source-line="30" id="lnk26"><path d="M443.62,913.71 C504.01,913.58 571.14,913.4208 631.05,913.2908" fill="none" id="IUC12-to-IUC13" style="stroke:#181818;stroke-width:1;stroke-dasharray:7,7;"/><polygon fill="#181818" points="636.05,913.28,627.0413,909.2995,631.05,913.2908,627.0587,917.2995,636.05,913.28" style="stroke:#181818;stroke-width:1;stroke-linejoin:miter;stroke-miterlimit:10;"/><text fill="#000000" font-family="sans-serif" font-size="13" lengthAdjust="spacing" textLength="63.0068" x="506.37" y="910.0669">&#171;include&#187;</text></g><!--link IUC14 to IUC15--><g class="link" data-entity-1="ent0016" data-entity-2="ent0017" data-link-type="dependency" data-source-line="31" id="lnk27"><path d="M439.23,1003 C498.32,1003 564.43,1003 624.47,1003" fill="none" id="IUC14-to-IUC15" style="stroke:#181818;stroke-width:1;stroke-dasharray:7,7;"/><polygon fill="#181818" points="629.47,1003,620.47,999,624.47,1003,620.47,1007,629.47,1003" style="stroke:#181818;stroke-width:1;stroke-linejoin:miter;stroke-miterlimit:10;"/><text fill="#000000" font-family="sans-serif" font-size="13" lengthAdjust="spacing" textLength="63.0068" x="506.37" y="999.0669">&#171;include&#187;</text></g><!--link IUC16 to IUC17--><g class="link" data-entity-1="ent0018" data-entity-2="ent0019" data-link-type="dependency" data-source-line="32" id="lnk28"><path d="M467.37,1097 C522.76,1097 579.86,1097 632.37,1097" fill="none" id="IUC16-to-IUC17" style="stroke:#181818;stroke-width:1;stroke-dasharray:7,7;"/><polygon fill="#181818" points="637.37,1097,628.37,1093,632.37,1097,628.37,1101,637.37,1097" style="stroke:#181818;stroke-width:1;stroke-linejoin:miter;stroke-miterlimit:10;"/><text fill="#000000" font-family="sans-serif" font-size="13" lengthAdjust="spacing" textLength="63.0068" x="506.37" y="1093.0669">&#171;include&#187;</text></g><!--link IUC18 to IUC19--><g class="link" data-entity-1="ent0020" data-entity-2="ent0021" data-link-type="dependency" data-source-line="33" id="lnk29"><path d="M473.53,1198 C514.54,1198 553.84,1198 594.99,1198" fill="none" id="IUC18-to-IUC19" style="stroke:#181818;stroke-width:1;stroke-dasharray:7,7;"/><polygon fill="#181818" points="599.99,1198,590.99,1194,594.99,1198,590.99,1202,599.99,1198" style="stroke:#181818;stroke-width:1;stroke-linejoin:miter;stroke-miterlimit:10;"/><text fill="#000000" font-family="sans-serif" font-size="13" lengthAdjust="spacing" textLength="63.0068" x="506.37" y="1194.0669">&#171;include&#187;</text></g><!--link I to IUC1--><g class="link" data-entity-1="ent0001" data-entity-2="ent0003" data-link-type="dependency" data-source-line="36" id="lnk30"><path d="M52.09,687.63 C52.93,568.88 61.63,210.33 135.14,126 C148.66,110.49 161.861,101.3853 181.061,93.6653" fill="none" id="I-to-IUC1" style="stroke:#181818;stroke-width:1;"/><polygon fill="#181818" points="185.7,91.8,175.8575,91.4463,181.061,93.6653,178.8419,98.8687,185.7,91.8" style="stroke:#181818;stroke-width:1;stroke-linejoin:miter;stroke-miterlimit:10;"/></g><!--link I to IUC2--><g class="link" data-entity-1="ent0001" data-entity-2="ent0004" data-link-type="dependency" data-source-line="37" id="lnk31"><path d="M53.02,687.71 C56.45,581.24 71.63,284.95 135.14,216 C151.49,198.25 168.8828,188.4532 192.1028,181.4532" fill="none" id="I-to-IUC2" style="stroke:#181818;stroke-width:1;"/><polygon fill="#181818" points="196.89,180.01,187.1185,178.7779,192.1028,181.4532,189.4276,186.4375,196.89,180.01" style="stroke:#181818;stroke-width:1;stroke-linejoin:miter;stroke-miterlimit:10;"/></g><!--link I to IUC3--><g class="link" data-entity-1="ent0001" data-entity-2="ent0005" data-link-type="dependency" data-source-line="38" id="lnk32"><path d="M54.58,687.36 C61.39,594.53 83.32,362.61 135.14,308 C151.55,290.7 168.6947,281.022 191.6047,273.912" fill="none" id="I-to-IUC3" style="stroke:#181818;stroke-width:1;"/><polygon fill="#181818" points="196.38,272.43,186.5988,271.2773,191.6047,273.912,188.97,278.9178,196.38,272.43" style="stroke:#181818;stroke-width:1;stroke-linejoin:miter;stroke-miterlimit:10;"/></g><!--link I to IUC4--><g class="link" data-entity-1="ent0001" data-entity-2="ent0006" data-link-type="dependency" data-source-line="39" id="lnk33"><path d="M57.27,687.48 C68.25,611.81 96.02,447.66 135.14,408 C150.03,392.9 164.3456,383.9982 184.4156,376.5082" fill="none" id="I-to-IUC4" style="stroke:#181818;stroke-width:1;"/><polygon fill="#181818" points="189.1,374.76,179.2695,374.1592,184.4156,376.5082,182.0666,381.6543,189.1,374.76" style="stroke:#181818;stroke-width:1;stroke-linejoin:miter;stroke-miterlimit:10;"/></g><!--link I to IUC6--><g class="link" data-entity-1="ent0001" data-entity-2="ent0008" data-link-type="dependency" data-source-line="40" id="lnk34"><path d="M54.37,687.79 C59.68,635.05 77.21,540.65 135.14,489 C157.76,468.83 183.2811,458.9001 212.7311,453.2001" fill="none" id="I-to-IUC6" style="stroke:#181818;stroke-width:1;"/><polygon fill="#181818" points="217.64,452.25,208.0439,450.0331,212.7311,453.2001,209.5641,457.8873,217.64,452.25" style="stroke:#181818;stroke-width:1;stroke-linejoin:miter;stroke-miterlimit:10;"/></g><!--link I to IUC8--><g class="link" data-entity-1="ent0001" data-entity-2="ent0010" data-link-type="dependency" data-source-line="41" id="lnk35"><path d="M64.85,687.44 C77.61,654.85 100.38,609.38 135.14,583 C153.9,568.76 171.7758,560.2731 194.6258,553.3331" fill="none" id="I-to-IUC8" style="stroke:#181818;stroke-width:1;"/><polygon fill="#181818" points="199.41,551.88,189.636,550.6681,194.6258,553.3331,191.9609,558.3229,199.41,551.88" style="stroke:#181818;stroke-width:1;stroke-linejoin:miter;stroke-miterlimit:10;"/></g><!--link I to IUC9--><g class="link" data-entity-1="ent0001" data-entity-2="ent0011" data-link-type="dependency" data-source-line="42" id="lnk36"><path d="M96.34,698.84 C108.61,692.06 122.14,685.23 135.14,680 C160.34,669.86 183.5388,662.5181 209.8688,655.4981" fill="none" id="I-to-IUC9" style="stroke:#181818;stroke-width:1;"/><polygon fill="#181818" points="214.7,654.21,204.9733,652.6636,209.8688,655.4981,207.0342,660.3935,214.7,654.21" style="stroke:#181818;stroke-width:1;stroke-linejoin:miter;stroke-miterlimit:10;"/></g><!--link I to IUC10--><g class="link" data-entity-1="ent0001" data-entity-2="ent0012" data-link-type="dependency" data-source-line="43" id="lnk37"><path d="M96.59,726 C121.95,726 150.16,726 183.05,726" fill="none" id="I-to-IUC10" style="stroke:#181818;stroke-width:1;"/><polygon fill="#181818" points="188.05,726,179.05,722,183.05,726,179.05,730,188.05,726" style="stroke:#181818;stroke-width:1;stroke-linejoin:miter;stroke-miterlimit:10;"/></g><!--link I to IUC11--><g class="link" data-entity-1="ent0001" data-entity-2="ent0013" data-link-type="dependency" data-source-line="44" id="lnk38"><path d="M96.34,753.16 C108.61,759.94 122.14,766.77 135.14,772 C160.64,782.26 184.2081,789.6844 210.8181,796.7644" fill="none" id="I-to-IUC11" style="stroke:#181818;stroke-width:1;"/><polygon fill="#181818" points="215.65,798.05,207.9811,791.8704,210.8181,796.7644,205.9241,799.6014,215.65,798.05" style="stroke:#181818;stroke-width:1;stroke-linejoin:miter;stroke-miterlimit:10;"/></g><!--link I to IUC12--><g class="link" data-entity-1="ent0001" data-entity-2="ent0014" data-link-type="dependency" data-source-line="45" id="lnk39"><path d="M64.88,764.34 C77.67,796.73 100.45,841.9 135.14,868 C155.75,883.51 176.1969,892.5016 201.2569,899.3516" fill="none" id="I-to-IUC12" style="stroke:#181818;stroke-width:1;"/><polygon fill="#181818" points="206.08,900.67,198.4532,894.4385,201.2569,899.3516,196.3438,902.1554,206.08,900.67" style="stroke:#181818;stroke-width:1;stroke-linejoin:miter;stroke-miterlimit:10;"/></g><!--link I to IUC14--><g class="link" data-entity-1="ent0001" data-entity-2="ent0016" data-link-type="dependency" data-source-line="46" id="lnk40"><path d="M54.78,764.34 C60.57,816.21 78.66,908.12 135.14,959 C154.13,976.11 173.8213,985.5524 198.6413,992.2224" fill="none" id="I-to-IUC14" style="stroke:#181818;stroke-width:1;"/><polygon fill="#181818" points="203.47,993.52,195.8165,987.3213,198.6413,992.2224,193.7403,995.0472,203.47,993.52" style="stroke:#181818;stroke-width:1;stroke-linejoin:miter;stroke-miterlimit:10;"/></g><!--link I to IUC16--><g class="link" data-entity-1="ent0001" data-entity-2="ent0018" data-link-type="dependency" data-source-line="47" id="lnk41"><path d="M57.18,764.59 C68.04,840.84 95.67,1006.89 135.14,1047 C149.9,1062 164.0305,1070.8487 183.9305,1078.3387" fill="none" id="I-to-IUC16" style="stroke:#181818;stroke-width:1;"/><polygon fill="#181818" points="188.61,1080.1,181.5959,1073.1861,183.9305,1078.3387,178.7778,1080.6733,188.61,1080.1" style="stroke:#181818;stroke-width:1;stroke-linejoin:miter;stroke-miterlimit:10;"/></g><!--link I to IUC18--><g class="link" data-entity-1="ent0001" data-entity-2="ent0020" data-link-type="dependency" data-source-line="48" id="lnk42"><path d="M54.6,764.49 C61.5,857.55 83.65,1091.24 135.14,1147 C148.77,1161.76 161.666,1170.4922 180.446,1178.1022" fill="none" id="I-to-IUC18" style="stroke:#181818;stroke-width:1;"/><polygon fill="#181818" points="185.08,1179.98,178.241,1172.8928,180.446,1178.1022,175.2366,1180.3072,185.08,1179.98" style="stroke:#181818;stroke-width:1;stroke-linejoin:miter;stroke-miterlimit:10;"/></g><!--link I to IUC20--><g class="link" data-entity-1="ent0001" data-entity-2="ent0022" data-link-type="dependency" data-source-line="49" id="lnk43"><path d="M52.98,764.36 C56.32,872.54 71.32,1176.88 135.14,1249 C148.36,1263.95 160.9559,1272.7937 179.4959,1280.5337" fill="none" id="I-to-IUC20" style="stroke:#181818;stroke-width:1;"/><polygon fill="#181818" points="184.11,1282.46,177.3457,1275.3015,179.4959,1280.5337,174.2637,1282.684,184.11,1282.46" style="stroke:#181818;stroke-width:1;stroke-linejoin:miter;stroke-miterlimit:10;"/></g><!--link I to IUC21--><g class="link" data-entity-1="ent0001" data-entity-2="ent0023" data-link-type="dependency" data-source-line="50" id="lnk44"><path d="M51.63,764.53 C51.03,887.34 55.78,1266.54 135.14,1353 C155.17,1374.83 179.2887,1385.1922 208.2487,1390.7222" fill="none" id="I-to-IUC21" style="stroke:#181818;stroke-width:1;"/><polygon fill="#181818" points="213.16,1391.66,205.07,1386.0429,208.2487,1390.7222,203.5695,1393.9009,213.16,1391.66" style="stroke:#181818;stroke-width:1;stroke-linejoin:miter;stroke-miterlimit:10;"/></g><?plantuml-src TPJ1RXCn48Rl-nIZdE2GgjwqQOAgIY4ga0CgQgWue1nSUv9OSUp5zhOWr7TddB3sKeURjJFVFsFFFwjn7I1OS6gp3I2LGn6KDPNVATDmn_VGSB7Z6ro6NneXXhdPQAou2DR1OB5lDExH17G3u1uMLPLoOD0Aknxofe4tlRot0_XT0RGU1VUKz7qnV9Yp5JmOYSuJAc7clTeOb73tgDM6nuxyKPuo2xPUmJq-ANpEtDoQuAnEK5r0enLyqTn0QknG1RvPj-kWKG5ThE3s9uesO5VX5T-X5mLwIHTi9E-HIqBQrE5bGOofGsTbAn1kdvH48x1B7XV9LokOXS35DkN6gVujrM5N1JPPmMUkg7bbClZ1eTyQzActIS5DuvFxnjAig4mYx_57YpuaS5hE-PnkXMvjtHwMgDT36XbLYW-O1dnUKYpsQSY6L6AFKXs7DHF_EgEq1glJizyhluEl3dc8nJ9KMeEDuktueR5uJILRhWzyWafhCFB69_8ksNw-9VjZT0OjIK9AIx3BRDprchRcX75PwGjsC0RITYBGEyAibIfuY7jpLCjmwHD6HfblKUpY3QMAKuQFlCb8wH4sYMtIjzGSFRop12xZid8dCrqwXKqxEhdaltHfbvhiChTQyqVhuX1fwDtwt3qR-briLPDslFHDJRwvzOBhoBxNLkm8IVci8Y0kAvoTtHns4Dx1zRKoGhSIRswEqN4NlJeLPNKNPgEJyIJEJggp9CzEwqzIVFeg_b9L2nWEZy5yhFDnb8yN-JZEnqa-JdjYvxrpJvdrf5bFaFKKMK-oxkdKx0y0?></g></svg>